<svg width="152" height="155" viewBox="0 0 152 155" fill="none" xmlns="http://www.w3.org/2000/svg">
<g filter="url(#filter0_i)">
<path d="M28.0163 58.5923L46.901 96.5079C48.3736 99.4643 52.5921 99.4632 54.063 96.5058L75.1451 54.1175C75.6849 53.0322 75.7035 51.7606 75.1955 50.66L56.7442 10.6825C55.3286 7.61544 50.9837 7.5755 49.512 10.616L27.9964 55.0663C27.4567 56.1813 27.464 57.4835 28.0163 58.5923Z" fill="#FFBD69"/>
</g>
<g filter="url(#filter1_di)">
<path d="M140.465 26.7692L90.7266 126.544C84.8612 138.31 68.0958 138.373 62.142 126.652L54.1318 110.882C51.8368 106.364 51.818 101.025 54.081 96.4909L96.008 12.4858C98.7162 7.05954 104.259 3.63086 110.324 3.63086H126.146C138.032 3.63086 145.768 16.1319 140.465 26.7692Z" fill="#543864"/>
</g>
<g filter="url(#filter2_i)">
<path d="M23.4986 49.6053L2.92483 8.80086C1.58345 6.14049 3.5171 3 6.4965 3H46.8212C49.7723 3 51.7073 6.08644 50.4216 8.74273L30.6707 49.5471C29.227 52.5298 24.9905 52.5641 23.4986 49.6053Z" fill="#543864"/>
</g>
<defs>
<filter id="filter0_i" x="27.5967" y="8.3584" width="53.9669" height="91.3658" filterUnits="userSpaceOnUse" color-interpolation-filters="sRGB">
<feFlood flood-opacity="0" result="BackgroundImageFix"/>
<feBlend mode="normal" in="SourceGraphic" in2="BackgroundImageFix" result="shape"/>
<feColorMatrix in="SourceAlpha" type="matrix" values="0 0 0 0 0 0 0 0 0 0 0 0 0 0 0 0 0 0 127 0" result="hardAlpha"/>
<feOffset dx="6" dy="1"/>
<feGaussianBlur stdDeviation="3"/>
<feComposite in2="hardAlpha" operator="arithmetic" k2="-1" k3="1"/>
<feColorMatrix type="matrix" values="0 0 0 0 0 0 0 0 0 0 0 0 0 0 0 0 0 0 0.25 0"/>
<feBlend mode="normal" in2="shape" result="effect1_innerShadow"/>
</filter>
<filter id="filter1_di" x="48.3975" y="0.630859" width="97.7697" height="139.775" filterUnits="userSpaceOnUse" color-interpolation-filters="sRGB">
<feFlood flood-opacity="0" result="BackgroundImageFix"/>
<feColorMatrix in="SourceAlpha" type="matrix" values="0 0 0 0 0 0 0 0 0 0 0 0 0 0 0 0 0 0 127 0"/>
<feOffset dy="1"/>
<feGaussianBlur stdDeviation="2"/>
<feColorMatrix type="matrix" values="0 0 0 0 0 0 0 0 0 0 0 0 0 0 0 0 0 0 0.25 0"/>
<feBlend mode="normal" in2="BackgroundImageFix" result="effect1_dropShadow"/>
<feBlend mode="normal" in="SourceGraphic" in2="effect1_dropShadow" result="shape"/>
<feColorMatrix in="SourceAlpha" type="matrix" values="0 0 0 0 0 0 0 0 0 0 0 0 0 0 0 0 0 0 127 0" result="hardAlpha"/>
<feOffset dx="8" dy="1"/>
<feGaussianBlur stdDeviation="1"/>
<feComposite in2="hardAlpha" operator="arithmetic" k2="-1" k3="1"/>
<feColorMatrix type="matrix" values="0 0 0 0 0 0 0 0 0 0 0 0 0 0 0 0 0 0 0.25 0"/>
<feBlend mode="normal" in2="shape" result="effect2_innerShadow"/>
</filter>
<filter id="filter2_i" x="2.49121" y="3" width="50.3349" height="49.8044" filterUnits="userSpaceOnUse" color-interpolation-filters="sRGB">
<feFlood flood-opacity="0" result="BackgroundImageFix"/>
<feBlend mode="normal" in="SourceGraphic" in2="BackgroundImageFix" result="shape"/>
<feColorMatrix in="SourceAlpha" type="matrix" values="0 0 0 0 0 0 0 0 0 0 0 0 0 0 0 0 0 0 127 0" result="hardAlpha"/>
<feOffset dx="8" dy="1"/>
<feGaussianBlur stdDeviation="1"/>
<feComposite in2="hardAlpha" operator="arithmetic" k2="-1" k3="1"/>
<feColorMatrix type="matrix" values="0 0 0 0 0 0 0 0 0 0 0 0 0 0 0 0 0 0 0.25 0"/>
<feBlend mode="normal" in2="shape" result="effect1_innerShadow"/>
</filter>
</defs>
</svg>
